<svg width="329" height="93" viewBox="0 0 329 93" fill="none" xmlns="http://www.w3.org/2000/svg">
<path d="M3.08 91C2.14133 91 1.416 90.744 0.904 90.232C0.392001 89.6347 0.136001 88.9093 0.136001 88.056V4.47199C0.136001 3.53333 0.392001 2.808 0.904 2.296C1.416 1.69866 2.14133 1.39999 3.08 1.39999H9.48C10.4187 1.39999 11.144 1.69866 11.656 2.296C12.2533 2.808 12.552 3.53333 12.552 4.47199V36.216L46.728 3.448C47.0693 3.10666 47.624 2.68 48.392 2.168C49.2453 1.656 50.3547 1.39999 51.72 1.39999H58.632C59.3147 1.39999 59.912 1.656 60.424 2.168C60.936 2.68 61.192 3.27733 61.192 3.96C61.192 4.64266 61.0213 5.19733 60.68 5.62399L21.128 44.28L63.24 86.648C63.6667 87.16 63.88 87.7573 63.88 88.44C63.88 89.1227 63.624 89.72 63.112 90.232C62.6 90.744 62.0027 91 61.32 91H54.152C52.7013 91 51.592 90.744 50.824 90.232C50.056 89.6347 49.5013 89.208 49.16 88.952L12.552 52.856V88.056C12.552 88.9093 12.2533 89.6347 11.656 90.232C11.144 90.744 10.4187 91 9.48 91H3.08ZM79.955 91C79.0163 91 78.291 90.744 77.779 90.232C77.267 89.6347 77.011 88.9093 77.011 88.056V4.47199C77.011 3.53333 77.267 2.808 77.779 2.296C78.291 1.69866 79.0163 1.39999 79.955 1.39999H109.011C117.8 1.39999 124.883 2.72266 130.259 5.368C135.635 8.01333 139.56 11.9387 142.035 17.144C144.51 22.264 145.79 28.5787 145.875 36.088C145.96 39.928 146.003 43.2987 146.003 46.2C146.003 49.1013 145.96 52.4293 145.875 56.184C145.704 64.0347 144.382 70.5627 141.907 75.768C139.518 80.888 135.678 84.728 130.387 87.288C125.182 89.7627 118.27 91 109.651 91H79.955ZM89.555 80.12H109.011C114.899 80.12 119.592 79.3093 123.091 77.688C126.59 76.0667 129.107 73.464 130.643 69.88C132.264 66.296 133.118 61.56 133.203 55.672C133.374 53.112 133.459 50.8933 133.459 49.016C133.459 47.0533 133.459 45.1333 133.459 43.256C133.459 41.2933 133.374 39.0747 133.203 36.6C133.032 28.3227 131.07 22.2213 127.315 18.296C123.56 14.2853 117.246 12.28 108.371 12.28H89.555V80.12Z" fill="#101218"/>
<path d="M199.565 92.28C191.544 92.28 184.674 90.9573 178.957 88.312C173.325 85.5813 168.93 81.656 165.773 76.536C162.701 71.3307 161.037 65.0587 160.781 57.72C160.696 54.0507 160.653 50.1253 160.653 45.944C160.653 41.7627 160.696 37.7947 160.781 34.04C161.037 26.872 162.701 20.7707 165.773 15.736C168.93 10.7013 173.368 6.86133 179.085 4.216C184.888 1.48533 191.714 0.119995 199.565 0.119995C205.88 0.119995 211.426 0.930662 216.205 2.55199C220.984 4.17333 224.994 6.30666 228.237 8.952C231.48 11.512 233.954 14.328 235.661 17.4C237.368 20.472 238.264 23.416 238.349 26.232C238.349 27 238.093 27.6827 237.581 28.28C237.069 28.792 236.386 29.048 235.533 29.048H219.661C218.808 29.048 218.125 28.8773 217.613 28.536C217.186 28.1947 216.802 27.6827 216.461 27C215.864 25.464 214.882 23.928 213.517 22.392C212.237 20.7707 210.488 19.4053 208.269 18.296C206.05 17.1867 203.149 16.632 199.565 16.632C194.189 16.632 189.922 18.04 186.765 20.856C183.693 23.672 182.029 28.28 181.773 34.68C181.517 42.0187 181.517 49.4853 181.773 57.08C182.029 63.736 183.736 68.5147 186.893 71.416C190.136 74.3173 194.445 75.768 199.821 75.768C203.32 75.768 206.434 75.1707 209.165 73.976C211.981 72.696 214.2 70.7333 215.821 68.088C217.442 65.4427 218.253 62.072 218.253 57.976V54.776H204.301C203.448 54.776 202.722 54.4773 202.125 53.88C201.528 53.1973 201.229 52.4293 201.229 51.576V43.384C201.229 42.4453 201.528 41.6773 202.125 41.08C202.722 40.4827 203.448 40.184 204.301 40.184H235.661C236.6 40.184 237.368 40.4827 237.965 41.08C238.562 41.6773 238.861 42.4453 238.861 43.384V57.336C238.861 64.6747 237.24 70.9467 233.997 76.152C230.84 81.3573 226.274 85.368 220.301 88.184C214.413 90.9147 207.501 92.28 199.565 92.28ZM290.056 92.28C282.291 92.28 275.592 91 269.96 88.44C264.328 85.88 259.933 82.04 256.776 76.92C253.619 71.7147 251.912 65.1867 251.656 57.336C251.571 53.6667 251.528 50.04 251.528 46.456C251.528 42.7867 251.571 39.0747 251.656 35.32C251.912 27.64 253.619 21.1973 256.776 15.992C260.019 10.7013 264.456 6.73333 270.088 4.088C275.805 1.44266 282.461 0.119995 290.056 0.119995C297.565 0.119995 304.136 1.44266 309.768 4.088C315.485 6.73333 319.965 10.7013 323.208 15.992C326.451 21.1973 328.157 27.64 328.328 35.32C328.499 39.0747 328.584 42.7867 328.584 46.456C328.584 50.04 328.499 53.6667 328.328 57.336C328.072 65.1867 326.365 71.7147 323.208 76.92C320.051 82.04 315.656 85.88 310.024 88.44C304.392 91 297.736 92.28 290.056 92.28ZM290.056 75.768C295.005 75.768 299.059 74.2747 302.216 71.288C305.459 68.216 307.165 63.352 307.336 56.696C307.507 52.9413 307.592 49.4427 307.592 46.2C307.592 42.872 307.507 39.3733 307.336 35.704C307.251 31.2667 306.44 27.64 304.904 24.824C303.368 22.008 301.32 19.96 298.76 18.68C296.285 17.3147 293.384 16.632 290.056 16.632C286.728 16.632 283.784 17.3147 281.224 18.68C278.664 19.96 276.616 22.008 275.08 24.824C273.629 27.64 272.819 31.2667 272.648 35.704C272.563 39.3733 272.52 42.872 272.52 46.2C272.52 49.4427 272.563 52.9413 272.648 56.696C272.904 63.352 274.611 68.216 277.768 71.288C280.925 74.2747 285.021 75.768 290.056 75.768Z" fill="#4785FF"/>
</svg>
