<svg width="76" height="77" viewBox="0 0 76 77" fill="none" xmlns="http://www.w3.org/2000/svg">
<path d="M1.76 69C1.64267 69 1.552 68.968 1.488 68.904C1.424 68.8293 1.392 68.7387 1.392 68.632V58.184C1.392 58.0667 1.424 57.976 1.488 57.912C1.552 57.8373 1.64267 57.8 1.76 57.8H6.144C6.944 57.8 7.59467 57.9333 8.096 58.2C8.608 58.456 8.98133 58.808 9.216 59.256C9.46133 59.704 9.584 60.2053 9.584 60.76C9.584 61.1973 9.50933 61.576 9.36 61.896C9.22133 62.2053 9.04533 62.4613 8.832 62.664C8.61867 62.856 8.41067 63.0053 8.208 63.112C8.624 63.3147 8.992 63.6453 9.312 64.104C9.64267 64.5627 9.808 65.1173 9.808 65.768C9.808 66.3547 9.67467 66.8933 9.408 67.384C9.14133 67.8747 8.74133 68.2693 8.208 68.568C7.68533 68.856 7.03467 69 6.256 69H1.76ZM2.96 67.704H6.048C6.74133 67.704 7.27467 67.5173 7.648 67.144C8.02133 66.7707 8.208 66.312 8.208 65.768C8.208 65.2027 8.02133 64.7387 7.648 64.376C7.27467 64.0027 6.74133 63.816 6.048 63.816H2.96V67.704ZM2.96 62.536H5.904C6.58667 62.536 7.104 62.3813 7.456 62.072C7.808 61.752 7.984 61.32 7.984 60.776C7.984 60.232 7.808 59.816 7.456 59.528C7.104 59.24 6.58667 59.096 5.904 59.096H2.96V62.536ZM15.1835 69.16C14.0848 69.16 13.2102 68.824 12.5595 68.152C11.9088 67.4693 11.5515 66.5413 11.4875 65.368C11.4768 65.2293 11.4715 65.0533 11.4715 64.84C11.4715 64.616 11.4768 64.4347 11.4875 64.296C11.5302 63.5387 11.7062 62.8773 12.0155 62.312C12.3248 61.736 12.7462 61.2933 13.2795 60.984C13.8235 60.6747 14.4582 60.52 15.1835 60.52C15.9942 60.52 16.6715 60.6907 17.2155 61.032C17.7702 61.3733 18.1915 61.8587 18.4795 62.488C18.7675 63.1173 18.9115 63.8533 18.9115 64.696V64.968C18.9115 65.0853 18.8742 65.176 18.7995 65.24C18.7355 65.304 18.6502 65.336 18.5435 65.336H13.0075C13.0075 65.3467 13.0075 65.368 13.0075 65.4C13.0075 65.432 13.0075 65.4587 13.0075 65.48C13.0288 65.9173 13.1248 66.328 13.2955 66.712C13.4662 67.0853 13.7115 67.3893 14.0315 67.624C14.3515 67.8587 14.7355 67.976 15.1835 67.976C15.5675 67.976 15.8875 67.9173 16.1435 67.8C16.3995 67.6827 16.6075 67.5547 16.7675 67.416C16.9275 67.2667 17.0342 67.1547 17.0875 67.08C17.1835 66.9413 17.2582 66.8613 17.3115 66.84C17.3648 66.808 17.4502 66.792 17.5675 66.792H18.3355C18.4422 66.792 18.5275 66.824 18.5915 66.888C18.6662 66.9413 18.6982 67.0213 18.6875 67.128C18.6768 67.288 18.5915 67.4853 18.4315 67.72C18.2715 67.944 18.0422 68.168 17.7435 68.392C17.4448 68.616 17.0822 68.8027 16.6555 68.952C16.2288 69.0907 15.7382 69.16 15.1835 69.16ZM13.0075 64.232H17.3915V64.184C17.3915 63.704 17.3008 63.2773 17.1195 62.904C16.9488 62.5307 16.6982 62.2373 16.3675 62.024C16.0368 61.8 15.6422 61.688 15.1835 61.688C14.7248 61.688 14.3302 61.8 13.9995 62.024C13.6795 62.2373 13.4342 62.5307 13.2635 62.904C13.0928 63.2773 13.0075 63.704 13.0075 64.184V64.232ZM24.2326 72.52C23.5073 72.52 22.91 72.424 22.4406 72.232C21.982 72.04 21.6193 71.8053 21.3526 71.528C21.0966 71.2613 20.91 70.9893 20.7926 70.712C20.686 70.4453 20.6273 70.232 20.6166 70.072C20.606 69.9653 20.638 69.8747 20.7126 69.8C20.798 69.7253 20.8886 69.688 20.9846 69.688H21.7526C21.8486 69.688 21.9286 69.7093 21.9926 69.752C22.0566 69.7947 22.11 69.8853 22.1526 70.024C22.2166 70.184 22.3126 70.36 22.4406 70.552C22.5686 70.7547 22.766 70.9253 23.0326 71.064C23.2993 71.2133 23.6726 71.288 24.1526 71.288C24.654 71.288 25.0753 71.2187 25.4166 71.08C25.758 70.952 26.014 70.7173 26.1846 70.376C26.366 70.0453 26.4566 69.5867 26.4566 69V67.912C26.2006 68.2427 25.8646 68.52 25.4486 68.744C25.0326 68.9573 24.51 69.064 23.8806 69.064C23.2833 69.064 22.7713 68.9627 22.3446 68.76C21.918 68.5467 21.566 68.264 21.2886 67.912C21.022 67.5493 20.8193 67.1387 20.6806 66.68C20.5526 66.2213 20.478 65.7413 20.4566 65.24C20.446 64.9413 20.446 64.648 20.4566 64.36C20.478 63.8587 20.5526 63.3787 20.6806 62.92C20.8193 62.4613 21.022 62.0507 21.2886 61.688C21.566 61.3253 21.918 61.0427 22.3446 60.84C22.7713 60.6267 23.2833 60.52 23.8806 60.52C24.5206 60.52 25.0486 60.6427 25.4646 60.888C25.8913 61.1227 26.238 61.4107 26.5046 61.752V61.064C26.5046 60.9573 26.5366 60.8667 26.6006 60.792C26.6753 60.7173 26.766 60.68 26.8726 60.68H27.6086C27.7153 60.68 27.806 60.7173 27.8806 60.792C27.9553 60.8667 27.9926 60.9573 27.9926 61.064V68.824C27.9926 69.5387 27.87 70.1733 27.6246 70.728C27.39 71.2827 26.9953 71.72 26.4406 72.04C25.8966 72.36 25.1606 72.52 24.2326 72.52ZM24.2006 67.784C24.734 67.784 25.1606 67.6613 25.4806 67.416C25.8113 67.1707 26.0513 66.8613 26.2006 66.488C26.3606 66.1147 26.446 65.736 26.4566 65.352C26.4673 65.2027 26.4726 65.0213 26.4726 64.808C26.4726 64.584 26.4673 64.3973 26.4566 64.248C26.446 63.864 26.3606 63.4853 26.2006 63.112C26.0513 62.7387 25.8113 62.4293 25.4806 62.184C25.1606 61.9387 24.734 61.816 24.2006 61.816C23.6673 61.816 23.2406 61.9387 22.9206 62.184C22.6006 62.4187 22.3713 62.7333 22.2326 63.128C22.094 63.512 22.014 63.928 21.9926 64.376C21.982 64.6533 21.982 64.936 21.9926 65.224C22.014 65.672 22.094 66.0933 22.2326 66.488C22.3713 66.872 22.6006 67.1867 22.9206 67.432C23.2406 67.6667 23.6673 67.784 24.2006 67.784ZM30.7395 69C30.6328 69 30.5422 68.968 30.4675 68.904C30.4035 68.8293 30.3715 68.7387 30.3715 68.632V61.048C30.3715 60.9413 30.4035 60.856 30.4675 60.792C30.5422 60.7173 30.6328 60.68 30.7395 60.68H31.5075C31.6142 60.68 31.6995 60.7173 31.7635 60.792C31.8275 60.856 31.8595 60.9413 31.8595 61.048V68.632C31.8595 68.7387 31.8275 68.8293 31.7635 68.904C31.6995 68.968 31.6142 69 31.5075 69H30.7395ZM30.6115 59.128C30.5048 59.128 30.4142 59.096 30.3395 59.032C30.2755 58.9573 30.2435 58.8667 30.2435 58.76V57.896C30.2435 57.7893 30.2755 57.704 30.3395 57.64C30.4142 57.5653 30.5048 57.528 30.6115 57.528H31.6195C31.7262 57.528 31.8115 57.5653 31.8755 57.64C31.9502 57.704 31.9875 57.7893 31.9875 57.896V58.76C31.9875 58.8667 31.9502 58.9573 31.8755 59.032C31.8115 59.096 31.7262 59.128 31.6195 59.128H30.6115ZM34.7708 69C34.6641 69 34.5734 68.968 34.4988 68.904C34.4348 68.8293 34.4028 68.7387 34.4028 68.632V61.048C34.4028 60.9413 34.4348 60.856 34.4988 60.792C34.5734 60.7173 34.6641 60.68 34.7708 60.68H35.5228C35.6294 60.68 35.7148 60.7173 35.7788 60.792C35.8534 60.856 35.8908 60.9413 35.8908 61.048V61.752C36.1681 61.3893 36.5148 61.096 36.9308 60.872C37.3574 60.6373 37.9014 60.52 38.5628 60.52C39.2561 60.52 39.8428 60.6747 40.3228 60.984C40.8134 61.2827 41.1814 61.704 41.4268 62.248C41.6721 62.7813 41.7948 63.4053 41.7948 64.12V68.632C41.7948 68.7387 41.7628 68.8293 41.6988 68.904C41.6348 68.968 41.5494 69 41.4427 69H40.6428C40.5361 69 40.4454 68.968 40.3708 68.904C40.3068 68.8293 40.2748 68.7387 40.2748 68.632V64.2C40.2748 63.4533 40.0934 62.872 39.7308 62.456C39.3681 62.0293 38.8348 61.816 38.1308 61.816C37.4694 61.816 36.9361 62.0293 36.5308 62.456C36.1361 62.872 35.9388 63.4533 35.9388 64.2V68.632C35.9388 68.7387 35.9014 68.8293 35.8268 68.904C35.7628 68.968 35.6774 69 35.5707 69H34.7708ZM44.4739 69C44.3672 69 44.2765 68.968 44.2019 68.904C44.1379 68.8293 44.1059 68.7387 44.1059 68.632V61.048C44.1059 60.9413 44.1379 60.856 44.2019 60.792C44.2765 60.7173 44.3672 60.68 44.4739 60.68H45.2259C45.3325 60.68 45.4179 60.7173 45.4819 60.792C45.5565 60.856 45.5939 60.9413 45.5939 61.048V61.752C45.8712 61.3893 46.2179 61.096 46.6339 60.872C47.0605 60.6373 47.6045 60.52 48.2659 60.52C48.9592 60.52 49.5459 60.6747 50.0259 60.984C50.5165 61.2827 50.8845 61.704 51.1299 62.248C51.3752 62.7813 51.4979 63.4053 51.4979 64.12V68.632C51.4979 68.7387 51.4659 68.8293 51.4019 68.904C51.3379 68.968 51.2525 69 51.1459 69H50.3459C50.2392 69 50.1485 68.968 50.0739 68.904C50.0099 68.8293 49.9779 68.7387 49.9779 68.632V64.2C49.9779 63.4533 49.7965 62.872 49.4339 62.456C49.0712 62.0293 48.5379 61.816 47.8339 61.816C47.1725 61.816 46.6392 62.0293 46.2339 62.456C45.8392 62.872 45.6419 63.4533 45.6419 64.2V68.632C45.6419 68.7387 45.6045 68.8293 45.5299 68.904C45.4659 68.968 45.3805 69 45.2739 69H44.4739ZM57.121 69.16C56.0223 69.16 55.1477 68.824 54.497 68.152C53.8463 67.4693 53.489 66.5413 53.425 65.368C53.4143 65.2293 53.409 65.0533 53.409 64.84C53.409 64.616 53.4143 64.4347 53.425 64.296C53.4677 63.5387 53.6437 62.8773 53.953 62.312C54.2623 61.736 54.6837 61.2933 55.217 60.984C55.761 60.6747 56.3957 60.52 57.121 60.52C57.9317 60.52 58.609 60.6907 59.153 61.032C59.7077 61.3733 60.129 61.8587 60.417 62.488C60.705 63.1173 60.849 63.8533 60.849 64.696V64.968C60.849 65.0853 60.8117 65.176 60.737 65.24C60.673 65.304 60.5877 65.336 60.481 65.336H54.945C54.945 65.3467 54.945 65.368 54.945 65.4C54.945 65.432 54.945 65.4587 54.945 65.48C54.9663 65.9173 55.0623 66.328 55.233 66.712C55.4037 67.0853 55.649 67.3893 55.969 67.624C56.289 67.8587 56.673 67.976 57.121 67.976C57.505 67.976 57.825 67.9173 58.081 67.8C58.337 67.6827 58.545 67.5547 58.705 67.416C58.865 67.2667 58.9717 67.1547 59.025 67.08C59.121 66.9413 59.1957 66.8613 59.249 66.84C59.3023 66.808 59.3877 66.792 59.505 66.792H60.273C60.3797 66.792 60.465 66.824 60.529 66.888C60.6037 66.9413 60.6357 67.0213 60.625 67.128C60.6143 67.288 60.529 67.4853 60.369 67.72C60.209 67.944 59.9797 68.168 59.681 68.392C59.3823 68.616 59.0197 68.8027 58.593 68.952C58.1663 69.0907 57.6757 69.16 57.121 69.16ZM54.945 64.232H59.329V64.184C59.329 63.704 59.2383 63.2773 59.057 62.904C58.8863 62.5307 58.6357 62.2373 58.305 62.024C57.9743 61.8 57.5797 61.688 57.121 61.688C56.6623 61.688 56.2677 61.8 55.937 62.024C55.617 62.2373 55.3717 62.5307 55.201 62.904C55.0303 63.2773 54.945 63.704 54.945 64.184V64.232ZM63.1301 69C63.0235 69 62.9328 68.968 62.8581 68.904C62.7941 68.8293 62.7621 68.7387 62.7621 68.632V61.064C62.7621 60.9573 62.7941 60.8667 62.8581 60.792C62.9328 60.7173 63.0235 60.68 63.1301 60.68H63.8661C63.9728 60.68 64.0635 60.7173 64.1381 60.792C64.2128 60.8667 64.2501 60.9573 64.2501 61.064V61.768C64.4635 61.4053 64.7568 61.1333 65.1301 60.952C65.5035 60.7707 65.9515 60.68 66.4741 60.68H67.1141C67.2208 60.68 67.3061 60.7173 67.3701 60.792C67.4341 60.856 67.4661 60.9413 67.4661 61.048V61.704C67.4661 61.8107 67.4341 61.896 67.3701 61.96C67.3061 62.024 67.2208 62.056 67.1141 62.056H66.1541C65.5781 62.056 65.1248 62.2267 64.7941 62.568C64.4635 62.8987 64.2981 63.352 64.2981 63.928V68.632C64.2981 68.7387 64.2608 68.8293 64.1861 68.904C64.1115 68.968 64.0208 69 63.9141 69H63.1301ZM71.7203 69.16C71.1229 69.16 70.6109 69.0853 70.1843 68.936C69.7576 68.7867 69.4109 68.6053 69.1443 68.392C68.8776 68.1787 68.6749 67.9653 68.5363 67.752C68.4083 67.5387 68.3389 67.368 68.3283 67.24C68.3176 67.1227 68.3549 67.032 68.4403 66.968C68.5256 66.904 68.6109 66.872 68.6963 66.872H69.4003C69.4643 66.872 69.5123 66.8827 69.5443 66.904C69.5869 66.9147 69.6403 66.9573 69.7043 67.032C69.8429 67.1813 69.9976 67.3307 70.1683 67.48C70.3389 67.6293 70.5469 67.752 70.7923 67.848C71.0483 67.944 71.3629 67.992 71.7363 67.992C72.2803 67.992 72.7283 67.8907 73.0803 67.688C73.4323 67.4747 73.6083 67.1653 73.6083 66.76C73.6083 66.4933 73.5336 66.28 73.3843 66.12C73.2456 65.96 72.9896 65.816 72.6163 65.688C72.2536 65.56 71.7523 65.4267 71.1123 65.288C70.4723 65.1387 69.9656 64.9573 69.5923 64.744C69.2189 64.52 68.9523 64.2587 68.7923 63.96C68.6323 63.6507 68.5523 63.304 68.5523 62.92C68.5523 62.5253 68.6696 62.1467 68.9043 61.784C69.1389 61.4107 69.4803 61.1067 69.9283 60.872C70.3869 60.6373 70.9576 60.52 71.6403 60.52C72.1949 60.52 72.6696 60.5893 73.0643 60.728C73.4589 60.8667 73.7843 61.0427 74.0403 61.256C74.2963 61.4587 74.4883 61.6613 74.6163 61.864C74.7443 62.0667 74.8136 62.2373 74.8243 62.376C74.8349 62.4827 74.8029 62.5733 74.7283 62.648C74.6536 62.712 74.5683 62.744 74.4723 62.744H73.8003C73.7256 62.744 73.6616 62.728 73.6083 62.696C73.5656 62.664 73.5229 62.6267 73.4803 62.584C73.3736 62.4453 73.2456 62.3067 73.0963 62.168C72.9576 62.0293 72.7709 61.9173 72.5363 61.832C72.3123 61.736 72.0136 61.688 71.6403 61.688C71.1069 61.688 70.7069 61.8 70.4403 62.024C70.1736 62.248 70.0403 62.5307 70.0403 62.872C70.0403 63.0747 70.0989 63.256 70.2163 63.416C70.3336 63.576 70.5576 63.72 70.8883 63.848C71.2189 63.976 71.7096 64.1147 72.3602 64.264C73.0643 64.4027 73.6189 64.5893 74.0243 64.824C74.4296 65.0587 74.7176 65.3307 74.8883 65.64C75.0589 65.9493 75.1443 66.3067 75.1443 66.712C75.1443 67.16 75.0109 67.5707 74.7443 67.944C74.4883 68.3173 74.1043 68.616 73.5923 68.84C73.0909 69.0533 72.4669 69.16 71.7203 69.16Z" fill="#7C7C7C"/>
<rect x="17" y="28" width="8" height="15" rx="2" fill="#4785FF"/>
<rect x="28" y="19" width="8" height="24" rx="2" fill="#4785FF" fill-opacity="0.29"/>
<rect x="40" y="9" width="8" height="34" rx="2" fill="#4785FF" fill-opacity="0.29"/>
<rect x="51" width="8" height="43" rx="2" fill="#4785FF" fill-opacity="0.29"/>
</svg>
