<svg width="98" height="78" viewBox="0 0 98 78" fill="none" xmlns="http://www.w3.org/2000/svg">
<path d="M1.152 70C1.04533 70 0.954667 69.968 0.88 69.904C0.816 69.8293 0.784 69.7387 0.784 69.632V69.12C0.784 69.024 0.810667 68.9173 0.864 68.8C0.917333 68.6827 1.024 68.5547 1.184 68.416L4.576 65.024C5.12 64.5653 5.54667 64.176 5.856 63.856C6.176 63.5253 6.4 63.2107 6.528 62.912C6.66667 62.6133 6.736 62.304 6.736 61.984C6.736 61.376 6.56533 60.896 6.224 60.544C5.88267 60.1813 5.376 60 4.704 60C4.27733 60 3.90933 60.0907 3.6 60.272C3.29067 60.4427 3.04533 60.6827 2.864 60.992C2.69333 61.2907 2.58133 61.632 2.528 62.016C2.50667 62.1547 2.448 62.2507 2.352 62.304C2.26667 62.3573 2.18667 62.384 2.112 62.384H1.28C1.184 62.384 1.104 62.3573 1.04 62.304C0.976 62.24 0.944 62.1653 0.944 62.08C0.954667 61.6747 1.04 61.2693 1.2 60.864C1.36 60.448 1.59467 60.0747 1.904 59.744C2.224 59.4133 2.61333 59.1467 3.072 58.944C3.54133 58.7307 4.08533 58.624 4.704 58.624C5.54667 58.624 6.23467 58.7787 6.768 59.088C7.312 59.3867 7.712 59.7867 7.968 60.288C8.224 60.7893 8.352 61.3387 8.352 61.936C8.352 62.4053 8.272 62.8373 8.112 63.232C7.952 63.616 7.71733 63.9947 7.408 64.368C7.10933 64.7307 6.736 65.104 6.288 65.488L3.216 68.608H8.208C8.32533 68.608 8.416 68.64 8.48 68.704C8.55467 68.768 8.592 68.8587 8.592 68.976V69.632C8.592 69.7387 8.55467 69.8293 8.48 69.904C8.416 69.968 8.32533 70 8.208 70H1.152ZM13.8066 70C13.7 70 13.6093 69.968 13.5346 69.904C13.4706 69.8293 13.4386 69.7387 13.4386 69.632V60.672L10.7826 62.72C10.6973 62.784 10.6066 62.8107 10.5106 62.8C10.4146 62.7893 10.3346 62.7413 10.2706 62.656L9.85463 62.128C9.79063 62.032 9.76396 61.936 9.77463 61.84C9.79596 61.744 9.84929 61.664 9.93463 61.6L13.4226 58.912C13.4973 58.8587 13.5666 58.8267 13.6306 58.816C13.6946 58.8053 13.764 58.8 13.8386 58.8H14.6546C14.7613 58.8 14.8466 58.8373 14.9106 58.912C14.9746 58.976 15.0066 59.0613 15.0066 59.168V69.632C15.0066 69.7387 14.9746 69.8293 14.9106 69.904C14.8466 69.968 14.7613 70 14.6546 70H13.8066ZM21.3064 70.16C20.5704 70.16 19.9464 70.048 19.4344 69.824C18.933 69.5893 18.5224 69.2693 18.2024 68.864C17.8824 68.4587 17.6477 67.9947 17.4984 67.472C17.3597 66.9493 17.2797 66.3947 17.2584 65.808C17.2477 65.52 17.237 65.216 17.2264 64.896C17.2264 64.576 17.2264 64.256 17.2264 63.936C17.237 63.6053 17.2477 63.2907 17.2584 62.992C17.269 62.4053 17.349 61.8507 17.4984 61.328C17.6584 60.7947 17.893 60.3307 18.2024 59.936C18.5224 59.5307 18.9384 59.216 19.4504 58.992C19.9624 58.7573 20.581 58.64 21.3064 58.64C22.0424 58.64 22.661 58.7573 23.1624 58.992C23.6744 59.216 24.0904 59.5307 24.4104 59.936C24.7304 60.3307 24.965 60.7947 25.1144 61.328C25.2744 61.8507 25.3597 62.4053 25.3704 62.992C25.381 63.2907 25.3864 63.6053 25.3864 63.936C25.397 64.256 25.397 64.576 25.3864 64.896C25.3864 65.216 25.381 65.52 25.3704 65.808C25.3597 66.3947 25.2744 66.9493 25.1144 67.472C24.965 67.9947 24.7304 68.4587 24.4104 68.864C24.101 69.2693 23.6904 69.5893 23.1784 69.824C22.677 70.048 22.053 70.16 21.3064 70.16ZM21.3064 68.8C22.1384 68.8 22.7517 68.528 23.1464 67.984C23.5517 67.4293 23.7597 66.6773 23.7704 65.728C23.7917 65.4187 23.8024 65.12 23.8024 64.832C23.8024 64.5333 23.8024 64.24 23.8024 63.952C23.8024 63.6533 23.7917 63.36 23.7704 63.072C23.7597 62.144 23.5517 61.4027 23.1464 60.848C22.7517 60.2827 22.1384 60 21.3064 60C20.485 60 19.8717 60.2827 19.4664 60.848C19.0717 61.4027 18.8637 62.144 18.8424 63.072C18.8424 63.36 18.837 63.6533 18.8264 63.952C18.8264 64.24 18.8264 64.5333 18.8264 64.832C18.837 65.12 18.8424 65.4187 18.8424 65.728C18.8637 66.6773 19.077 67.4293 19.4824 67.984C19.8877 68.528 20.4957 68.8 21.3064 68.8ZM34.3765 70.16C33.7792 70.16 33.2672 70.0853 32.8405 69.936C32.4138 69.7867 32.0672 69.6053 31.8005 69.392C31.5338 69.1787 31.3312 68.9653 31.1925 68.752C31.0645 68.5387 30.9952 68.368 30.9845 68.24C30.9738 68.1227 31.0112 68.032 31.0965 67.968C31.1818 67.904 31.2672 67.872 31.3525 67.872H32.0565C32.1205 67.872 32.1685 67.8827 32.2005 67.904C32.2432 67.9147 32.2965 67.9573 32.3605 68.032C32.4992 68.1813 32.6538 68.3307 32.8245 68.48C32.9952 68.6293 33.2032 68.752 33.4485 68.848C33.7045 68.944 34.0192 68.992 34.3925 68.992C34.9365 68.992 35.3845 68.8907 35.7365 68.688C36.0885 68.4747 36.2645 68.1653 36.2645 67.76C36.2645 67.4933 36.1898 67.28 36.0405 67.12C35.9018 66.96 35.6458 66.816 35.2725 66.688C34.9098 66.56 34.4085 66.4267 33.7685 66.288C33.1285 66.1387 32.6218 65.9573 32.2485 65.744C31.8752 65.52 31.6085 65.2587 31.4485 64.96C31.2885 64.6507 31.2085 64.304 31.2085 63.92C31.2085 63.5253 31.3258 63.1467 31.5605 62.784C31.7952 62.4107 32.1365 62.1067 32.5845 61.872C33.0432 61.6373 33.6138 61.52 34.2965 61.52C34.8512 61.52 35.3258 61.5893 35.7205 61.728C36.1152 61.8667 36.4405 62.0427 36.6965 62.256C36.9525 62.4587 37.1445 62.6613 37.2725 62.864C37.4005 63.0667 37.4698 63.2373 37.4805 63.376C37.4912 63.4827 37.4592 63.5733 37.3845 63.648C37.3098 63.712 37.2245 63.744 37.1285 63.744H36.4565C36.3818 63.744 36.3178 63.728 36.2645 63.696C36.2218 63.664 36.1792 63.6267 36.1365 63.584C36.0298 63.4453 35.9018 63.3067 35.7525 63.168C35.6138 63.0293 35.4272 62.9173 35.1925 62.832C34.9685 62.736 34.6698 62.688 34.2965 62.688C33.7632 62.688 33.3632 62.8 33.0965 63.024C32.8298 63.248 32.6965 63.5307 32.6965 63.872C32.6965 64.0747 32.7552 64.256 32.8725 64.416C32.9898 64.576 33.2138 64.72 33.5445 64.848C33.8752 64.976 34.3658 65.1147 35.0165 65.264C35.7205 65.4027 36.2752 65.5893 36.6805 65.824C37.0858 66.0587 37.3738 66.3307 37.5445 66.64C37.7152 66.9493 37.8005 67.3067 37.8005 67.712C37.8005 68.16 37.6672 68.5707 37.4005 68.944C37.1445 69.3173 36.7605 69.616 36.2485 69.84C35.7472 70.0533 35.1232 70.16 34.3765 70.16ZM42.8851 70C42.2878 70 41.8025 69.888 41.4291 69.664C41.0558 69.4293 40.7838 69.104 40.6131 68.688C40.4425 68.2613 40.3571 67.76 40.3571 67.184V62.96H39.1091C39.0025 62.96 38.9118 62.928 38.8371 62.864C38.7731 62.7893 38.7411 62.6987 38.7411 62.592V62.048C38.7411 61.9413 38.7731 61.856 38.8371 61.792C38.9118 61.7173 39.0025 61.68 39.1091 61.68H40.3571V59.008C40.3571 58.9013 40.3891 58.816 40.4531 58.752C40.5278 58.6773 40.6185 58.64 40.7251 58.64H41.4771C41.5838 58.64 41.6691 58.6773 41.7331 58.752C41.8078 58.816 41.8451 58.9013 41.8451 59.008V61.68H43.8291C43.9358 61.68 44.0211 61.7173 44.0851 61.792C44.1598 61.856 44.1971 61.9413 44.1971 62.048V62.592C44.1971 62.6987 44.1598 62.7893 44.0851 62.864C44.0211 62.928 43.9358 62.96 43.8291 62.96H41.8451V67.072C41.8451 67.5733 41.9305 67.968 42.1011 68.256C42.2718 68.544 42.5758 68.688 43.0131 68.688H43.9891C44.0958 68.688 44.1811 68.7253 44.2451 68.8C44.3198 68.864 44.3571 68.9493 44.3571 69.056V69.632C44.3571 69.7387 44.3198 69.8293 44.2451 69.904C44.1811 69.968 44.0958 70 43.9891 70H42.8851ZM48.9911 70.16C48.3085 70.16 47.7271 70.0107 47.2471 69.712C46.7778 69.4027 46.4205 68.976 46.1751 68.432C45.9298 67.888 45.8071 67.264 45.8071 66.56V62.048C45.8071 61.9413 45.8391 61.856 45.9031 61.792C45.9778 61.7173 46.0685 61.68 46.1751 61.68H46.9751C47.0818 61.68 47.1671 61.7173 47.2311 61.792C47.3058 61.856 47.3431 61.9413 47.3431 62.048V66.48C47.3431 68.0693 48.0365 68.864 49.4231 68.864C50.0845 68.864 50.6125 68.656 51.0071 68.24C51.4125 67.8133 51.6151 67.2267 51.6151 66.48V62.048C51.6151 61.9413 51.6471 61.856 51.7111 61.792C51.7858 61.7173 51.8765 61.68 51.9831 61.68H52.7671C52.8845 61.68 52.9751 61.7173 53.0391 61.792C53.1031 61.856 53.1351 61.9413 53.1351 62.048V69.632C53.1351 69.7387 53.1031 69.8293 53.0391 69.904C52.9751 69.968 52.8845 70 52.7671 70H52.0311C51.9245 70 51.8338 69.968 51.7591 69.904C51.6951 69.8293 51.6631 69.7387 51.6631 69.632V68.928C51.3751 69.3013 51.0231 69.6 50.6071 69.824C50.2018 70.048 49.6631 70.16 48.9911 70.16ZM58.5521 70.16C57.9655 70.16 57.4588 70.0587 57.0321 69.856C56.6055 69.6427 56.2535 69.36 55.9761 69.008C55.7095 68.6453 55.5068 68.2347 55.3681 67.776C55.2401 67.3173 55.1655 66.832 55.1441 66.32C55.1335 66.1493 55.1281 65.9893 55.1281 65.84C55.1281 65.6907 55.1335 65.5307 55.1441 65.36C55.1655 64.8587 55.2401 64.3787 55.3681 63.92C55.5068 63.4613 55.7095 63.0507 55.9761 62.688C56.2535 62.3253 56.6055 62.0427 57.0321 61.84C57.4588 61.6267 57.9655 61.52 58.5521 61.52C59.1815 61.52 59.7041 61.632 60.1201 61.856C60.5361 62.08 60.8775 62.3573 61.1441 62.688V59.008C61.1441 58.9013 61.1761 58.816 61.2401 58.752C61.3148 58.6773 61.4055 58.64 61.5121 58.64H62.2801C62.3868 58.64 62.4721 58.6773 62.5361 58.752C62.6108 58.816 62.6481 58.9013 62.6481 59.008V69.632C62.6481 69.7387 62.6108 69.8293 62.5361 69.904C62.4721 69.968 62.3868 70 62.2801 70H61.5601C61.4428 70 61.3521 69.968 61.2881 69.904C61.2241 69.8293 61.1921 69.7387 61.1921 69.632V68.96C60.9255 69.3013 60.5788 69.5893 60.1521 69.824C59.7255 70.048 59.1921 70.16 58.5521 70.16ZM58.8881 68.864C59.4215 68.864 59.8481 68.7413 60.1681 68.496C60.4881 68.2507 60.7281 67.9413 60.8881 67.568C61.0481 67.184 61.1335 66.7947 61.1441 66.4C61.1548 66.2293 61.1601 66.0267 61.1601 65.792C61.1601 65.5467 61.1548 65.3387 61.1441 65.168C61.1335 64.7947 61.0428 64.4267 60.8721 64.064C60.7121 63.7013 60.4668 63.4027 60.1361 63.168C59.8161 62.9333 59.4001 62.816 58.8881 62.816C58.3441 62.816 57.9121 62.9387 57.5921 63.184C57.2721 63.4187 57.0428 63.7333 56.9041 64.128C56.7655 64.512 56.6855 64.928 56.6641 65.376C56.6535 65.6853 56.6535 65.9947 56.6641 66.304C56.6855 66.752 56.7655 67.1733 56.9041 67.568C57.0428 67.952 57.2721 68.2667 57.5921 68.512C57.9121 68.7467 58.3441 68.864 58.8881 68.864ZM68.3398 70.16C67.2411 70.16 66.3664 69.824 65.7158 69.152C65.0651 68.4693 64.7078 67.5413 64.6438 66.368C64.6331 66.2293 64.6278 66.0533 64.6278 65.84C64.6278 65.616 64.6331 65.4347 64.6438 65.296C64.6864 64.5387 64.8624 63.8773 65.1718 63.312C65.4811 62.736 65.9024 62.2933 66.4358 61.984C66.9798 61.6747 67.6144 61.52 68.3398 61.52C69.1504 61.52 69.8278 61.6907 70.3718 62.032C70.9264 62.3733 71.3478 62.8587 71.6358 63.488C71.9238 64.1173 72.0677 64.8533 72.0677 65.696V65.968C72.0677 66.0853 72.0304 66.176 71.9558 66.24C71.8918 66.304 71.8064 66.336 71.6998 66.336H66.1638C66.1638 66.3467 66.1638 66.368 66.1638 66.4C66.1638 66.432 66.1638 66.4587 66.1638 66.48C66.1851 66.9173 66.2811 67.328 66.4518 67.712C66.6224 68.0853 66.8678 68.3893 67.1878 68.624C67.5078 68.8587 67.8918 68.976 68.3398 68.976C68.7238 68.976 69.0438 68.9173 69.2998 68.8C69.5558 68.6827 69.7638 68.5547 69.9238 68.416C70.0838 68.2667 70.1904 68.1547 70.2438 68.08C70.3398 67.9413 70.4144 67.8613 70.4678 67.84C70.5211 67.808 70.6064 67.792 70.7238 67.792H71.4918C71.5984 67.792 71.6838 67.824 71.7478 67.888C71.8224 67.9413 71.8544 68.0213 71.8438 68.128C71.8331 68.288 71.7478 68.4853 71.5878 68.72C71.4278 68.944 71.1984 69.168 70.8998 69.392C70.6011 69.616 70.2384 69.8027 69.8118 69.952C69.3851 70.0907 68.8944 70.16 68.3398 70.16ZM66.1638 65.232H70.5478V65.184C70.5478 64.704 70.4571 64.2773 70.2758 63.904C70.1051 63.5307 69.8544 63.2373 69.5238 63.024C69.1931 62.8 68.7984 62.688 68.3398 62.688C67.8811 62.688 67.4864 62.8 67.1558 63.024C66.8358 63.2373 66.5904 63.5307 66.4198 63.904C66.2491 64.2773 66.1638 64.704 66.1638 65.184V65.232ZM74.3489 70C74.2422 70 74.1515 69.968 74.0769 69.904C74.0129 69.8293 73.9809 69.7387 73.9809 69.632V62.048C73.9809 61.9413 74.0129 61.856 74.0769 61.792C74.1515 61.7173 74.2422 61.68 74.3489 61.68H75.1009C75.2075 61.68 75.2929 61.7173 75.3569 61.792C75.4315 61.856 75.4689 61.9413 75.4689 62.048V62.752C75.7462 62.3893 76.0929 62.096 76.5089 61.872C76.9355 61.6373 77.4795 61.52 78.1409 61.52C78.8342 61.52 79.4209 61.6747 79.9009 61.984C80.3915 62.2827 80.7595 62.704 81.0049 63.248C81.2502 63.7813 81.3729 64.4053 81.3729 65.12V69.632C81.3729 69.7387 81.3409 69.8293 81.2769 69.904C81.2129 69.968 81.1275 70 81.0209 70H80.2209C80.1142 70 80.0235 69.968 79.9489 69.904C79.8849 69.8293 79.8529 69.7387 79.8529 69.632V65.2C79.8529 64.4533 79.6715 63.872 79.3089 63.456C78.9462 63.0293 78.4129 62.816 77.7089 62.816C77.0475 62.816 76.5142 63.0293 76.1089 63.456C75.7142 63.872 75.5169 64.4533 75.5169 65.2V69.632C75.5169 69.7387 75.4795 69.8293 75.4049 69.904C75.3409 69.968 75.2555 70 75.1489 70H74.3489ZM86.8226 70C86.2253 70 85.74 69.888 85.3666 69.664C84.9933 69.4293 84.7213 69.104 84.5506 68.688C84.38 68.2613 84.2946 67.76 84.2946 67.184V62.96H83.0466C82.94 62.96 82.8493 62.928 82.7746 62.864C82.7106 62.7893 82.6786 62.6987 82.6786 62.592V62.048C82.6786 61.9413 82.7106 61.856 82.7746 61.792C82.8493 61.7173 82.94 61.68 83.0466 61.68H84.2946V59.008C84.2946 58.9013 84.3266 58.816 84.3906 58.752C84.4653 58.6773 84.556 58.64 84.6626 58.64H85.4146C85.5213 58.64 85.6066 58.6773 85.6706 58.752C85.7453 58.816 85.7826 58.9013 85.7826 59.008V61.68H87.7666C87.8733 61.68 87.9586 61.7173 88.0226 61.792C88.0973 61.856 88.1346 61.9413 88.1346 62.048V62.592C88.1346 62.6987 88.0973 62.7893 88.0226 62.864C87.9586 62.928 87.8733 62.96 87.7666 62.96H85.7826V67.072C85.7826 67.5733 85.868 67.968 86.0386 68.256C86.2093 68.544 86.5133 68.688 86.9506 68.688H87.9266C88.0333 68.688 88.1186 68.7253 88.1826 68.8C88.2573 68.864 88.2946 68.9493 88.2946 69.056V69.632C88.2946 69.7387 88.2573 69.8293 88.1826 69.904C88.1186 69.968 88.0333 70 87.9266 70H86.8226ZM92.7046 70.16C92.1073 70.16 91.5953 70.0853 91.1686 69.936C90.742 69.7867 90.3953 69.6053 90.1286 69.392C89.862 69.1787 89.6593 68.9653 89.5206 68.752C89.3926 68.5387 89.3233 68.368 89.3126 68.24C89.302 68.1227 89.3393 68.032 89.4246 67.968C89.51 67.904 89.5953 67.872 89.6806 67.872H90.3846C90.4486 67.872 90.4966 67.8827 90.5286 67.904C90.5713 67.9147 90.6246 67.9573 90.6886 68.032C90.8273 68.1813 90.982 68.3307 91.1526 68.48C91.3233 68.6293 91.5313 68.752 91.7766 68.848C92.0326 68.944 92.3473 68.992 92.7206 68.992C93.2646 68.992 93.7126 68.8907 94.0646 68.688C94.4166 68.4747 94.5926 68.1653 94.5926 67.76C94.5926 67.4933 94.518 67.28 94.3686 67.12C94.23 66.96 93.974 66.816 93.6006 66.688C93.238 66.56 92.7366 66.4267 92.0966 66.288C91.4566 66.1387 90.95 65.9573 90.5766 65.744C90.2033 65.52 89.9366 65.2587 89.7766 64.96C89.6166 64.6507 89.5366 64.304 89.5366 63.92C89.5366 63.5253 89.654 63.1467 89.8886 62.784C90.1233 62.4107 90.4646 62.1067 90.9126 61.872C91.3713 61.6373 91.942 61.52 92.6246 61.52C93.1793 61.52 93.654 61.5893 94.0486 61.728C94.4433 61.8667 94.7686 62.0427 95.0246 62.256C95.2806 62.4587 95.4726 62.6613 95.6006 62.864C95.7286 63.0667 95.798 63.2373 95.8086 63.376C95.8193 63.4827 95.7873 63.5733 95.7126 63.648C95.638 63.712 95.5526 63.744 95.4566 63.744H94.7846C94.71 63.744 94.646 63.728 94.5926 63.696C94.55 63.664 94.5073 63.6267 94.4646 63.584C94.358 63.4453 94.23 63.3067 94.0806 63.168C93.942 63.0293 93.7553 62.9173 93.5206 62.832C93.2966 62.736 92.998 62.688 92.6246 62.688C92.0913 62.688 91.6913 62.8 91.4246 63.024C91.158 63.248 91.0246 63.5307 91.0246 63.872C91.0246 64.0747 91.0833 64.256 91.2006 64.416C91.318 64.576 91.542 64.72 91.8726 64.848C92.2033 64.976 92.694 65.1147 93.3446 65.264C94.0486 65.4027 94.6033 65.5893 95.0086 65.824C95.414 66.0587 95.702 66.3307 95.8726 66.64C96.0433 66.9493 96.1286 67.3067 96.1286 67.712C96.1286 68.16 95.9953 68.5707 95.7286 68.944C95.4726 69.3173 95.0886 69.616 94.5766 69.84C94.0753 70.0533 93.4513 70.16 92.7046 70.16Z" fill="#7C7C7C"/>
<path d="M66.9267 22.4405H63.1372C63.5235 23.498 63.7345 24.6393 63.7345 25.8288V40.1508C63.7345 40.6467 63.6482 41.1228 63.4911 41.5655H69.7559C72.0962 41.5655 74 39.6616 74 37.3214V29.5139C74.0001 25.6137 70.827 22.4405 66.9267 22.4405ZM35.2656 25.8289C35.2656 24.6393 35.4766 23.4981 35.8629 22.4406H32.0734C28.1731 22.4406 25 25.6137 25 29.514V37.3216C25 39.6618 26.9038 41.5657 29.2441 41.5657H35.509C35.3477 41.1114 35.2654 40.6329 35.2656 40.1509V25.8289ZM53.8317 18.7555H45.1684C41.2681 18.7555 38.095 21.9286 38.095 25.8289V40.1509C38.095 40.9321 38.7284 41.5656 39.5097 41.5656H59.4904C60.2717 41.5656 60.9051 40.9322 60.9051 40.1509V25.8289C60.9051 21.9286 57.732 18.7555 53.8317 18.7555ZM49.5 0C44.8094 0 40.9934 3.81607 40.9934 8.50678C40.9934 11.6884 42.7494 14.4672 45.3428 15.9261C46.5729 16.618 47.991 17.0135 49.5 17.0135C51.0091 17.0135 52.4272 16.618 53.6573 15.9261C56.2508 14.4672 58.0067 11.6883 58.0067 8.50678C58.0067 3.81617 54.1907 0 49.5 0ZM34.5625 7.92892C31.0545 7.92892 28.2006 10.7828 28.2006 14.2908C28.2006 17.7988 31.0545 20.6527 34.5625 20.6527C35.4245 20.6534 36.2776 20.4779 37.0694 20.137C38.4003 19.5641 39.4976 18.5498 40.1766 17.2793C40.6685 16.3601 40.9254 15.3334 40.9244 14.2908C40.9244 10.7829 38.0705 7.92892 34.5625 7.92892ZM64.4376 7.92892C60.9296 7.92892 58.0757 10.7828 58.0757 14.2908C58.0747 15.3334 58.3316 16.3601 58.8235 17.2793C59.5025 18.5499 60.5998 19.5642 61.9307 20.137C62.7224 20.4779 63.5756 20.6534 64.4376 20.6527C67.9456 20.6527 70.7995 17.7988 70.7995 14.2908C70.7995 10.7828 67.9456 7.92892 64.4376 7.92892Z" fill="#4785FF"/>
</svg>
